<?xml version="1.0" encoding="utf-8"?>
<!-- Generator: Adobe Illustrator 23.0.3, SVG Export Plug-In . SVG Version: 6.00 Build 0)  -->
<svg version="1.1" id="Layer_1" xmlns="http://www.w3.org/2000/svg" xmlns:xlink="http://www.w3.org/1999/xlink" x="0px" y="0px"
	 viewBox="0 0 1115.2 245.5" style="enable-background:new 0 0 1115.2 245.5;" xml:space="preserve">
<style type="text/css">
	.st0{fill:#174759;}
	.st1{fill:#E3DFDA;}
	.st2{fill:#CCC4BC;}
	.st3{fill:#0F3B47;}
	.st4{fill:none;stroke:#0F3B47;stroke-width:1.414;stroke-miterlimit:10;}
	.st5{fill:#FFFFFF;}
</style>
<g>
	<path class="st0" d="M284.53,86.2c0.75,7.93-12.8,8.15-12.99,1.26C271.31,79.01,283.77,78.27,284.53,86.2 M350.83,65.03
		c-4.9-7.15-53.05,3.15-103.18,10.78c-2.3-5.31-9.13-18.12-24.79-28.31c-18.49-12.04-34.74-17.74-37.03-14.17
		c-2.29,3.58,7.97,13.02,3.35,30.1c-2.42,8.93-7.43,15.69-11.39,19.93c-11.11,0.73-21.4,1.21-30.8,1.42
		c-2.48-2.2-6.26-5.3-10.22-7.57c-6.78-3.88-10.27-5.4-11.09-4.74c-0.69,0.54,0.87,8.43-2.84,12.11
		c-18.79-0.87-31.91-3.61-38.35-8.75c-11.2-8.94-9.61-39.39-14.49-38.22c-5.36,1.28-3.07,14.89-12.41,31.19
		c-6.79,11.84-22.27,13.37-19.15,18.36c2.08,3.32,23.14-1.35,31.01,3.61c4.54,2.85,8.11,14.58,13.81,29.45
		c-3.64,4.25-11.23,4.58-11.6,5.67c-0.44,1.31,1.82,2.62,8.26,5.26c3.58,1.47,6.8,2.34,8.97,2.83
		c9.22,20.79,23.39,44.02,48.96,57.78c-10.36,5.5-18.84,10.26-18.31,11.91c0.65,1.96,19.82,3.99,40.06-2.99c0.01,0,0.01,0,0.02-0.01
		c38.32,12.88,111.18,7.47,137.6-26.71c-7.91-0.92-16.77-2.48-25.86-5.08c-29.7-8.49-37.33-18.23-46.66-33.94
		c-9.33-15.71,17.82-24.6,64.48-28c24.25-1.76,36.4-4.9,42.49-7.51C342.85,82.1,354.02,69.69,350.83,65.03"/>
	<path class="st1" d="M314.5,116.49c0,0-3.7,7.33-15.19,13.99c0,0-0.18-5.53-2.43-7.81c0,0-5.46,7.96-13.3,10.2
		c0,0-0.24-6.01-4.3-8.85c0,0-4.1,5.93-7.58,7.52c0,0-1.22-0.24-4.41-3.04c-3.18-2.8-6.43-4.47-6.43-4.47s-4.88,3.3-5.04,7.02
		c0,0-4.05-1.96-7.49-5.94c0,0-3.57,2.56-3.2,4.53c0,0-3.95-2.06-6.81-5.71c-2.86-3.65,3.83-13.87,19.87-15.5
		C274.23,106.82,306.01,113.66,314.5,116.49"/>
	<path class="st1" d="M312.42,147.92c0,0-0.78-2.63-7.25-7.42c0,0-1.31,3.23-1.9,4.52c-0.59,1.29-1.94,4.2-2.91,5.13
		c-0.96,0.93-5.92-3.01-10.14-4.62c0,0-1.17,1.84-1.53,3.26c-0.36,1.42-3.43,5.28-5.06,6.87c0,0-2.49,1.7-5.9-0.35
		c-3.41-2.05-6.65-2.83-7.39-2.65c-0.74,0.18-3.68,4.99-4.9,5.64c-1.22,0.64-4.32-4.91-6.43-6.08c0,0-2.74,4.79-8.2,7.76
		C250.82,159.98,279.61,168.83,312.42,147.92"/>
	<path class="st2" d="M256.22,166.51c-23.01-3.05-48.48-17.75-50.65-32.14c-1.57-10.42,9.08-20.69,41.74-26.26
		c44.41-9.64,61.73-15.21,76.91-18.5c6.88-1.49,10.53-1.76,12.47-1.61c1.35,1.28,1.03,2.09,1.03,2.09
		c-8.21,16.86-19.12,19.58-16.88,23.48c2.24,3.89-1.44,3.89-1.44,3.89c-12.36,1.63-52.2-9.72-70.44-1.68s-9.25,37.12,9.06,42.93
		c18.31,5.8,49.75-10.73,53.84-12.56s5.06,2.23,5.06,2.23c-0.18,11.94-18.77,38.86-46.38,49.9c-27.6,11.04-54.81,8.5-65.58,8.95
		C264.57,201.12,285.55,176.98,256.22,166.51"/>
	<path class="st3" d="M212.61,108.44c0,0-25.79,12.82-17.51,37.38C195.1,145.82,182.36,121.45,212.61,108.44"/>
	<path class="st4" d="M212.61,108.44c0,0-25.79,12.82-17.51,37.38C195.1,145.82,182.36,121.45,212.61,108.44z"/>
	<path class="st3" d="M186.92,114.64c0,0-11.52,10.07-4.8,28.05C182.12,142.69,171.24,127.23,186.92,114.64"/>
	<path class="st4" d="M186.92,114.64c0,0-11.52,10.07-4.8,28.05C182.12,142.69,171.24,127.23,186.92,114.64z"/>
	<path class="st3" d="M168.8,120.17c0,0-4.15,6.58,0.41,13.43C169.22,133.59,161.96,126.49,168.8,120.17"/>
	<path class="st4" d="M168.8,120.17c0,0-4.15,6.58,0.41,13.43C169.22,133.59,161.96,126.49,168.8,120.17z"/>
</g>
<path class="st5" d="M368.01,75.32l-24.73,33.5l23.97,32.21h82.96l7.85,9.83l-7.75,9h-82.85l-24.17,24.37h126.26l24.73-33.41
	l-24-31.93h-83.06l-7.94-9.88l7.94-9.32h82.69l24.36-24.36H368.01z M681.79,99.69h66.27v29.35h-66.27V99.69z M673.67,75.32
	l-24.73,24.36v84.35l32.86,0.18v-31.19h66.27v31.38l32.86,18.64V99.69l-24.73-24.36H673.67z M827.98,99.69h63.26l8.55,11.31
	l-8.8,12.14h-63.01V99.69z M795.12,75.32v108.9h32.85v-36.36h62.83l9.9,9.64v26.66l32.85,18.88v-50.02l-18.83-18.83l18.83-25.29
	l-24.73-33.59H795.12z M1051.96,75.32l-34.93,34.99L982.1,75.32h-39.12l54.49,54.58l-54.49,54.32h39.12l34.93-34.99l34.92,34.99
	h38.86l-54.49-54.32l54.49-54.58H1051.96z M601.87,75.51v43.38H536.9V75.32h-32.85v108.72l32.85,0.18v-43.19h64.97v43.19h32.86V56.5
	L601.87,75.51z"/>
</svg>
